<svg xmlns="http://www.w3.org/2000/svg" width="1000" height="400" viewBox="0 0 1000 400">
  <path id="l1" fill="#74ADB7" d="M876.34 29.218c-.016.314-.06.62-.115.92-.495.042-.96.15-1.362.315a7.02 7.02 0 0 1-1.062-.755c-2.624.727-5.353 1.17-8.19 1.353-.56.036-1.083.043-1.563-.162-4.54-1.946-9.215-3.723-14.317-4.99-1.175-.292-1.956-1.38-2.945-1.59-12.427-2.6-25.654-7.296-37.04-12.916-3.423-1.69-6.616-1.274-10.155-.087-7.85 2.635-17.89 7.843-25.997 8.88-7.336.94-14.558 2.78-21.768 4.365-3.37.14-6.03.24-6.22.15-3.14-1.43-6.42-2.704-9.924-3.71-1.242-.358-2.45-.014-3.593.384-3.52 1.223-8.15 1.548-11.317 3.39-6.29 3.657-17.078 3.59-24.242 4.942-.75.14-1.447.33-2.05.705-.428.266-2.344.028-4.854-.417a25.718 25.718 0 0 0-3.203-1.23c.184-.067.325-.166.395-.33.16-.4-.166-.695-.68-.875-7.928-2.778-16.283-6.007-24.514-7.71-1.735-.353-2.642.56-4.517-.07-4.64-1.56-9.637-2.676-14.183-4.372-2.713-1.012-5.004-2.428-7.854-3.3-1.09-.333-1.666-.425-2.81.073-4.432 1.936-9.057 3.636-14.445 4.275-1.542.182-2.95.742-4.638.44-.475-.084-.918-.144-1.28-.355-1.63-.95-3.28-1.072-5.228-.31-1.326.517-2.87.796-4.316 1.182-6.8-.32-14.986-4.85-21.702-6.455C569.134 8.207 558.63 3.14 547.31 0h-.726c-.375 0-.744.456-1.115.68-9.155 1.524-20.096 7.17-28.625 10.888-18.053 6.405-42.14 12.944-61.53 12.374-5.096-1.878-10.156-3.727-15.126-5.9-1.425-.623-2.804-.586-4.068.212-5.225-.412-12.286-6.488-17.578-4.862-.8.246-1.668.26-2.465.212-2.222-.13-1.98 1.277-3.824 1.323-1.632.04-2.703.418-3.363 1.53-.722 1.216-2.53 2.033-3.568 2.98-2.866.326-5.976-.735-8.71-1.4-1.448-.5-2.59-.778-3.67.536-1.16 1.414-4.266 1.72-5.123 3.157-1.43.162-4.452-.33-5.697.273-5.15.99-10.237 3.278-15.203 4.957-4.265.066-8.377 1.66-12.68.745-1.438-.304-2.435-1.286-3.946-1.69-1.613-.34-3.2-.775-4.76-1.305-2.112-1.206-4.232-2.407-6.312-3.637-.562-.33-1.244-.66-1.886-.596-2.336.233-4.64.59-6.958.896-1.24.343-.804 1.232-1.288 1.83-.385.478-.587.632-1.388.724-2.628.302-10.736 1.507-12.557 3.58-4.045.434-.19 2.72-3.163 3.087-1.783.222-3.345.847-4.606 1.76-.343.247-.14.41-.082.618.17.608.55 1.157.95 1.706-5.562-.057-10.82.19-15.787.694.038-1.822-.012-3.078-.166-3.464-.546-1.353-2.433-2.383-4.55-2.507-6.044-.353-11.776-3.407-17.71-4.482-1.432-.26-3.75 1.042-5.245 1.202-7.75-.895-15.408-3.144-23.096-4.043-7.49-.876-15.303.11-22.685-1.43-2.236-.464-4.505-.888-6.51-1.73-7.888-3.298-21.84 3.97-29.78 5.137-1.26.183-2.484.252-3.722-.037-4.165-.97-8.636-1.348-12.562-2.794-2.247-.825-6.89 1.44-9.156 1.788-5.216.805-10.41 1.423-15.54 2.723-4.74 1.2-11.494-.455-15.674 2.377h-1.345c-.02 0-.035-.152-.043-.182-.592-2.157-22.98-5.274-25.818-6.137-.396-.12-.82-.192-1.212-.02-4.806 2.073-12.903 2.42-18.055 2.694-2.692.145-5.418-.923-7.925-1.73-2.973-.967-5.65-.57-8.705-.44-3.266.143-8.206-2.262-11.05-1.57-3.85.948-7.35-.413-10.982-1.428-3.65-1.02-7.25.037-10.982-.097-4.5-.156-12.188 2.947-16.647 4.185-3.236.894-6.478 1.076-9.777.095-.982-.29-2.03-.535-3.14-.545C.384 134.697.002 246.547 0 358.34V400h1000l-.003-332.295c0-13.9-1-27.904-1-41.712-3.21-.284-5.784-3.532-9.186-3.6-4.548-.094-8.625-2.428-12.84-3.835-7.36-2.46-14.375-6.265-21.87-8.317-.924-.25-1.687-.262-2.552-.013-6.25 1.814-12.502 3.624-18.754 5.435-4.133 1.2-7.29 3.944-11.715 4.635-9.532 1.487-18.628 4.5-27.97 6.367-2.135.424-4.267.78-6.447 1.034-.44.692-.248 1.658-1.857 1.84.193-.623-.866-.833-1.04-1.336-1.693.34-3.23.72-5.033-.14-.87-.416-2.23.46-3.355.77l-.038.386z"/>
  <path id="l2" fill="#3F8FAA" d="M1000 400V128.363h-4.21c-.26-5.594-.392-11.6-1.774-11.273-4.12.96-42.574 5.038-43.354 8.288-.033 1.053.74 1.968 1.36 2.988h-2.284l.09-.763c.514-.254.12-.434-.354-.57-.004-.6-.008-1.198-.014-1.796-1.84.5-3.936.604-5.562.06-14.26-4.775-33.98.376-47.582-6.637a9.976 9.976 0 0 0-.15-.78c1.53-.175 3.402-.115 5.234-.42-2.932-2.182-15.993-2.732-19.933-2.987-1.15-1.186-3.004-1.8-5.586-2.107-6.555-.772-13.98-2.365-20.498-1.187-4.666.842-9.697 3.33-14.476 1.934-1.166-.334-1.693-.017-1.982.534-4.46 8.474-9.994.002-12.147-.384-2.144-.387-4.287-.197-6.197.285-1.836.462-3.77.762-5.648 1.143-5.336 1.09-16.568-2.61-22.044-3.543a47.137 47.137 0 0 0-9.297-3.854c-2.092-.332-.316-5.078-1.56-6.1-.718-.586-4.204-.818-4.958-.803h-.04c-.038 0-.075-.167-.114-.25-.057.083-.11.25-.17.25h-.236v.02c-1.502 1.064-4.492 1.505-7.006 2.055-2.026.47-4.07.85-6.13 1.136-3.335.393-5.74-4.777-7.726-4.265-1.252.32-1.634.12-2.234-.436-3.332-3.09-7.976-2.49-11.545-4.717a12.63 12.63 0 0 0-3.384.56c-.072.472-.595.942-1.486.817-1.152-.16-1.305.186-1.66.51-.52.47-.96.97-1.045 1.504-.146.895-1.79 1.356-2.275 2.088-.815 1.237-2.534.66-3.977.7-.223.005-.463.047-.662.02-2.452-.366-4.74 5.156-7.25 4.38-1.282-.397-2.648-.7-3.655-1.292-1.194 1.65-3.16 2.052-6.627 1.51-2.373-1.355-4.554-1.244-6.543.332-.82.59-5.21 4.717-5.733 5.558-.103-.02-.203-.042-.306-.065-.885-.202-1.612-.284-1.866.39-.11.294-.65.022-.982.055-1.164.116-2.777-.223-3.076.778-.953.058-3.432 1.158-4.238 1.458-1.012.38-2.228 1.517-2.756 2.436-.6.745-1.355 1.058-2.262.94-.48-.213-1.223-.385-1.393-.65-.642-1.007-2.463-.462-3.597-.783l.06.244-.148.093c-6.174-3.69-5.874 6.29-11.56 4.3-.285.465-.252.894-.207 1.324-.593.394-.552.893-.856 1.334-1.143.704-2.285.45-3.498-.786-.524.085-.694.436-1.3.458-.743.337-1.007-.35-1.66-.2-.588 1.085-3.772 1.073-4.77 1.068-.647-.003-2.93-.24-3.225-.364-.413-.43-.83-.858-1.29-1.333-.866.405-1.028.903-1.373 1.354-1.788.874-3.453.835-4.996-.118-.04.72-.477 1.34-1.733 1.74.195-.41-.82-.383-.953-.71-.29-.702-.836-.25-1.307-.043-.847.273-.488 1.12-2.017 1.078-.348-.244.144-.66-.698-.92-.21.708-1.013 1.11-2.222 1.143-.838.024-.06-.544-.653-.713-.86.163-.52.91-1.695.903-.123-.032-.246-.033-.365-.064-3.912.48-11.136-1.024-14.79-2.323-2.127-1.635-4.526-1.95-7.196-.946-1.145-.004-2.486.38-3.185-.502-.11-.14-1.355-.2-1.65.025-.645.493-1.95.52-2.496 1.033-4.314-.11-11.118-1.247-14.783-3.694-2.528-1.7-15.223-1.336-16.033-3.758-.084-.26-.604-.49-.894-.34-1.118.582-2.387.5-3.727.367-.08-.007-.21.115-.312.177-.67.56-1.67.567-2.722.387-.986-.17-1.92-.434-2.924-.574-1.844-.257-3.287-.728-4.156-1.625-1.54-1.585-13.05-3.112-13.096-1.2.008-.25.04-.502.057-.753-1.365.033-1.103-.578-1.386-1.094l-.69.826c-1.177.392-1.605.028-1.812-.414-.348.32.38.798-.488 1.135-1.266-.003-2.336.188-3.114.735-1.02.714-1.447 1.737-3.664 1.836.646-.032-9.02 2.722-6.878 2.148-.005-.107-.084-.18-.318-.185-.562-.006-1.006-.142-1.42-.315-1.846-1.012-5.335-2.034-6.91-3.23-.342-.257-.592-.564-1.03-.763-.165-.074-7.64-3.904-7.587-3.612-.084-.46.988-.075 1.303-.28-2.65-1.388-5.372-1.015-8.155-.248.19.3 1.15.036 1.08.393-8.356 2.042-17.666 3.692-25.725 5.72-4.412 1.055-8.945-5.242-13.33-4.04-13.383 3.74-24.072 1.623-37.493.987-1.15-.14-1.968.043-2.354.636-.222.097-.365.206-.216.36a13.567 13.567 0 0 1-3.736 2.24c-.472.134-.804.324-.928.596-6.44.63-12.14-1.087-18.194-1.087-.433-.385-.17-1.006-1.444-1.106l-.03-.015c.17-.347-.31-.482-.783-.62-1.712-2.13-10.084-1.927-12.93-3.32-8.645-1.315-14.725-1.478-23.555.144-3.53.647-36.875 3.04-37.742 6.55-.037 1.143.88 2.22 1.52 3.237h-2.475c.04-.254.08-.762.118-1.017.514-.254.122-.43-.352-.567-.004-.6-.01-1.195-.013-1.793-1.84.5-3.936.605-5.563.06-9.92-3.32-19.678-2.22-30.043-4.36-14.442-2.985-28.55-4.632-43.064-7.834-10.64-2.34-25.02 4.532-36.242 3.925-5.333-.29-10.396 2.205-15.357 3.7-5.345 1.61-11.377-.77-16.404 1.604-19.874-5.194-40.555-6.495-60.864-5.43-6.07.317-11.27 5.49-17.072 5.005-7.01-.585-15.336 1.142-21.8 3.8-4.554 1.87-9.212-1.732-13.807-.61-5.11 1.247-8.834 3.178-14.258 2.344l-.022-.094c-7.93.15-16.22-2.985-24.27-3.326-6.89-1.71-20.056-9.647-20.59.91L0 116.92V400h1000z"/>
  <path id="l3" fill="#097EB9" d="M616.325 194.208c-3.713-.135-7.225-1.016-10.828-1.746-4.97-1.008-10.046-1.325-14.944-2.696-2.135-.598-7.78-3.86-9.937-3.436-7.057 1.487-14.28 1.61-21.313 2.968-6.97.98-13.807 2.753-20.792 3.67-2.372.07-4.758-.753-7.12-.485-3.394.308-6.707 1.315-10.12 1.626l-1.26-.425c-.267.03-1.013-.28-1.128-.185-.575.203-15.746-8.686-16.297-8.475-.482.183-.885.165-1.34-.01a31.7 31.7 0 0 0-2.39-.85c-24.58-3.692-49.327-6.737-73.927-10.655.002.004 0 .004 0 .007l-.312-.14c-.006.005-.01.048-.017.052-.22-.072-.44-.153-.654-.153h-.974c-7.008 0-14.456 2.693-21.323 3.948-8.71 1.592-17.8 2.497-26.306 5.036-.005.006-.005.006 0 0l.01-.005c-.44.02-.886.036-.99.24-4.13.344-8.427.49-12.555.273-3.476.013-6.788.262-9.802.935-6.87-.252-13.63-.62-20.506-.457-4.95.006-9.9.272-14.85.38-.732-.024-1.304-.182-1.873-.332-1.797-.472-3 1.207-4.788.732-4.27-1.127-10.743 5.318-15.27 4.985.158.05.32.093.48.14a53.855 53.855 0 0 0-.476-.14c-5.892-1.183-12.53.165-18.406.754-1.882-.46-3.974-.548-6.157-.475-3.207-.712-6.494-1.167-9.73-1.734-3.517-.613-8.162 1.264-11.694 1.49-6.65.425-13.422-.332-20.064-.052-1.9.082-4.437 5.593-6.372 5.568-3.034-.04-6.372.324-9.37-.192-2-.24-12.008 8.186-13.76 8.114-2.395-.023-4.715.06-7.08-.427-5.55-.684-11.044-2.6-16.612-2.822-1.145-.045-2.388-.115-3.387.078-3.895.488-7.854 2.446-11.64 2.72-.894-.04-1.914-.18-2.663.017-9.783 2.59-19.704 7.81-29.987 7.986-.973.018 11.9 1.782 11.03 2-.53-.002-.865-.15-1.285-.234-.92-.386-1.842-.77-2.76-1.158a22.627 22.627 0 0 0-4.804-.788c-.904-.142-1.635-.09-2.377.133-2.58.772-5.29 1.102-7.887 1.817-1.858-.05-4.106-1.356-5.815-1.985-.167-.234-.56-.364-1.18-.234-3.968.838-8.093.753-12.1 1.506-2.767.536-5.743.4-8.465 1.046-9.91.517-20.61-.923-30.478-2.017-1.45-.162-2.5.003-3.367.373-8.17 0-19.414 4.72-27.372 7.42l.017-.008-.34.122.008-.007c-2.322.313-4.765 1.122-6.805 2.266-.636.098-1.21.187-1.733.372h-7.63c-2.97-.554-5.928-1.076-9.084-1.467-1.488-.183-3.735.084-5.378.156V400h1000V219.35c-1.5-.292-2.296-.284-3.56-.123-3.066.39-6.004.883-8.903 1.437h-7.923c-4.26-1.562-8.793-2.406-13.074-3.944-7.48-2.25-15.5-4.662-23.143-6.235-.815-.45-1.864-.477-3.215-.33-10.23 1.118-20.673 2.006-30.95 2.006-6.42-.723-12.954-1.396-19.32-2.41-1.814-.287-1.563-.208-2.426.258-1.794.58-3.28 1.28-5.16 1.826-2.125-.458-4.426-.836-6.335-1.395-2.12-.623-3.968-.655-6.41-.27-2.23.35-4.173 1.693-6.368 1.895-2.814-.505-6.863-1.322-9.744-1.34-7.445-1.688-14.785-4.04-21.963-6.624-1.27-.457-2.643-.534-4.225-.308-3.756-.86-7.208-2.147-11.067-2.762-.884-.223-1.89-.13-2.816-.108-5.562.142-10.733 2.31-16.264 2.756-2.79.45-5.536.46-8.35.513-2.8.444-5.618.764-8.457.808 1.148.2 1.38.562 1.5.946-.118-.38-.35-.747-1.5-.946-10.297-.013-20.81.59-31.076-.08-3.8-.245-7.67-1.445-11.46-1.472-2.52-.176-7.91.46-10.075 1.643-2.314.087-4.415.037-6.7.508-12.565-1.265-23.714-.66-35.973 2.4l1.3-.383c-11.483-1.704-23.788-.197-35.314.017-.348-.05-.696-.097-1.044-.146"/>
</svg>
