<svg width="414" height="478" viewBox="0 0 414 478" xmlns="http://www.w3.org/2000/svg">
  <g fill="none" stroke="#2E81E2">
    <path d="M207 361c0 32.51 9.78 62.86 90.645 56.973 80.863-5.887 112.648 11.925 112.648 44.375M203.293 361c0 32.51-9.78 62.86-90.645 56.973C31.785 412.086 0 429.898 0 462.348" stroke-width="6"/>
    <path d="M207 400c0 23.77 24.65 34 76.7 34 52.05 0 76.3 8.143 76.3 34M203 400c0 23.77-24.65 34-76.7 34-52.05 0-76.3 8.143-76.3 34" stroke-width="6"/>
    <path d="M207 400c0 23.77 8.88 47.6 42.56 47.6S306 452.144 306 478M203 400c0 23.77-8.88 47.6-42.56 47.6S104 452.144 104 478" stroke-width="6"/>
    <path d="M205 0v400" stroke-width="10"/>
  </g>
</svg>
