<svg version="1.1" viewBox="0 0 1260 706" x="0px" xml:space="preserve" xmlns:xlink="http://www.w3.org/1999/xlink" xmlns="http://www.w3.org/2000/svg" y="0px">
  <style type="text/css">
    .st0 {
      fill: #FFFFFF;
    }
    .st1 {
      fill: none;
      stroke: #29ABE2;
      stroke-width: 10.4;
      stroke-linecap: round;
      stroke-miterlimit: 10;
    }
    .st2 {
      display: none;
      fill: none;
    }
    .st3 {
      fill: none;
      stroke: #FFFFFF;
      stroke-miterlimit: 10;
    }
    .st4 {
      fill: none;
      stroke: none;
      stroke-miterlimit: 10;
    }

  </style>
  <symbol id="minerals" viewBox="-112 -166.835 224 333.669">
      <defs>
        <clipPath id="circClip">
          <circle r="100" stroke="none" cx="100" cy="100" />
        </clipPath>

        <g id="clipper">
          <image x="0" y="0" width="100" height="100" clip-path="url(#circClip)" fill="blue" xlink:href="./D6A102AD74442ADE.png" />       

          <circle r="100" stroke-width="28px" stroke="white" fill="none" />
          <circle r="100" stroke-width="12px" stroke="#29ABE2" fill="none" />
        </g>
      </defs>

    <polygon class="st2" points="-112,166 112,166 112,-166 -112,-166 	"/>
  </symbol>
  <g>
    <!-- <path class="st4" d="M1164.976,92.669c0,74.996-193.49,700.905-1079.946,463"/> -->

    <use height="333.669" transform="matrix(1 0 0 -1 1145.2133 152.372)" width="224" xlink:href="#clipper">
      <g>
        <text class="st0" style="font-family:'OpenSans-CondensedBold'; font-size:54;" transform="matrix(1 0 0 -1 -81.9629 -4)">HCO</text>
        <text class="st0" style="font-family:'OpenSans-CondensedBold'; font-size:54;" transform="matrix(0.583 0 0 -0.583 5.7871 -21.9819)">3</text>
      </g>
    </use>


    <use height="333.669" transform="matrix(1 0 0 -1 1048.2133 364.372)" width="224" xlink:href="#clipper">
      <image style="clip-path:url(#circClip);" height="1300" id="Layer_0_21_" style="overflow:visible;" transform="matrix(0.2567 0 0 -0.2567 -111.1376 166.8347)" width="866" xlink:href="./D6A102AD74442ADE.png"></image>

      <g>
        <text class="st0" style="font-family:'OpenSans-CondensedBold'; font-size:54;" transform="matrix(1 0 0 -1 -81.9629 -4)">HCO</text>
        <text class="st0" style="font-family:'OpenSans-CondensedBold'; font-size:54;" transform="matrix(0.583 0 0 -0.583 5.7871 -21.9819)">3</text>
      </g>
    </use>

    <use height="333.669" transform="matrix(1 0 0 -1 888.2133 540.372)" width="224" xlink:href="#clipper">
      <image style="clip-path:url(#circClip);" height="1300" id="Layer_0_21_" style="overflow:visible;" transform="matrix(0.2567 0 0 -0.2567 -111.1376 166.8347)" width="866" xlink:href="./D6A102AD74442ADE.png"></image>

      <g>
        <text class="st0" style="font-family:'OpenSans-CondensedBold'; font-size:54;" transform="matrix(1 0 0 -1 -81.9629 -4)">HCO</text>
        <text class="st0" style="font-family:'OpenSans-CondensedBold'; font-size:54;" transform="matrix(0.583 0 0 -0.583 5.7871 -21.9819)">3</text>
      </g>
    </use>

    <use height="333.669" transform="matrix(1 0 0 -1 653.2133 643.372)" width="224" xlink:href="#clipper">
      <image style="clip-path:url(#circClip);" height="1300" id="Layer_0_21_" style="overflow:visible;" transform="matrix(0.2567 0 0 -0.2567 -111.1376 166.8347)" width="866" xlink:href="./D6A102AD74442ADE.png"></image>

      <g>
        <text class="st0" style="font-family:'OpenSans-CondensedBold'; font-size:54;" transform="matrix(1 0 0 -1 -81.9629 -4)">HCO</text>
        <text class="st0" style="font-family:'OpenSans-CondensedBold'; font-size:54;" transform="matrix(0.583 0 0 -0.583 5.7871 -21.9819)">3</text>
      </g>
    </use>

    <use height="333.669" transform="matrix(1 0 0 -1 415.2133 667.372)" width="224" xlink:href="#clipper">
      <image style="clip-path:url(#circClip);" height="1300" id="Layer_0_21_" style="overflow:visible;" transform="matrix(0.2567 0 0 -0.2567 -111.1376 166.8347)" width="866" xlink:href="./D6A102AD74442ADE.png"></image>

      <g>
        <text class="st0" style="font-family:'OpenSans-CondensedBold'; font-size:54;" transform="matrix(1 0 0 -1 -81.9629 -4)">HCO</text>
        <text class="st0" style="font-family:'OpenSans-CondensedBold'; font-size:54;" transform="matrix(0.583 0 0 -0.583 5.7871 -21.9819)">3</text>
      </g>
    </use>

    <use height="333.669" transform="matrix(1 0 0 -1 171.2133 638.372)" width="224" xlink:href="#clipper">
      <image style="clip-path:url(#circClip);" height="1300" id="Layer_0_21_" style="overflow:visible;" transform="matrix(0.2567 0 0 -0.2567 -111.1376 166.8347)" width="866" xlink:href="./D6A102AD74442ADE.png"></image>

      <g>
        <text class="st0" style="font-family:'OpenSans-CondensedBold'; font-size:54;" transform="matrix(1 0 0 -1 -81.9629 -4)">HCO</text>
        <text class="st0" style="font-family:'OpenSans-CondensedBold'; font-size:54;" transform="matrix(0.583 0 0 -0.583 5.7871 -21.9819)">3</text>
      </g>
    </use>
  </g>
</svg>
